<svg width="360" height="100" viewBox="0 0 360 100" fill="none" xmlns="http://www.w3.org/2000/svg">
  <defs>
    <filter id="textNeonBlueTrans" x="-50%" y="-50%" width="200%" height="200%">
      <feGaussianBlur in="SourceAlpha" stdDeviation="3" result="blur"/>
      <feFlood flood-color="#5b6af0" result="color"/>
      <feComposite in="color" in2="blur" operator="in" result="glow"/>
      <feMerge>
        <feMergeNode in="glow"/>
        <feMergeNode in="SourceGraphic"/>
      </feMerge>
    </filter>
     <filter id="textNeonCyanTrans" x="-50%" y="-50%" width="200%" height="200%">
      <feGaussianBlur in="SourceAlpha" stdDeviation="3" result="blur"/>
      <feFlood flood-color="#00E5FF" result="color"/>
      <feComposite in="color" in2="blur" operator="in" result="glow"/>
      <feMerge>
        <feMergeNode in="glow"/>
        <feMergeNode in="SourceGraphic"/>
      </feMerge>
    </filter>
     <filter id="iconNeonBlueTrans" x="-50%" y="-50%" width="200%" height="200%"><feGaussianBlur in="SourceGraphic" stdDeviation="3" result="blur"/><feMerge><feMergeNode in="blur"/><feMergeNode in="SourceGraphic"/></feMerge></filter>
    <filter id="iconNeonCyanTrans" x="-50%" y="-50%" width="200%" height="200%"><feGaussianBlur in="SourceGraphic" stdDeviation="4" result="blur"/><feMerge><feMergeNode in="blur"/><feMergeNode in="SourceGraphic"/></feMerge></filter>
  </defs>

  <g transform="translate(20, 15) scale(0.5)">
       <path d="M60 25C48 25 40 32 40 45C40 52 43 56 48 60L55 67C58 70 60 73 60 78" stroke="#5b6af0" stroke-width="6" stroke-linecap="round" fill="none" filter="url(#iconNeonBlueTrans)"/>
       <g filter="url(#iconNeonCyanTrans)"><path d="M60 88L50 105H70L60 88Z" fill="#00E5FF"/><circle cx="45" cy="95" r="4" fill="#00E5FF"/><circle cx="75" cy="95" r="4" fill="#00E5FF"/></g>
  </g>

  <g transform="translate(95, 60)">
    <text font-family="'Courier New', Courier, monospace" font-size="42" font-weight="700" fill="#ffffff" stroke="#5b6af0" stroke-width="1.5" filter="url(#textNeonBlueTrans)">Light</text>
    
    <g transform="translate(130, 0)">
        <text x="2" y="2" font-family="'Courier New', Courier, monospace" font-size="42" font-weight="700" fill="none" stroke="#5b6af0" stroke-width="1" opacity="0.5">Quiz</text>
        <text font-family="'Courier New', Courier, monospace" font-size="42" font-weight="700" fill="#ffffff" stroke="#00E5FF" stroke-width="1.5" filter="url(#textNeonCyanTrans)">Quiz</text>
    </g>
    
    <path d="M0 15H250" stroke="#5b6af0" stroke-width="2" stroke-dasharray="10 15" opacity="0.5"/>
    <path d="M130 15H260" stroke="#00E5FF" stroke-width="2" stroke-dasharray="5 5"/>
  </g>
</svg>